<svg xmlns="http://www.w3.org/2000/svg" width="50" height="50" viewBox="0 0 50 50" fill="none">
  <mask id="mask0_1755_59340" style="mask-type:alpha" maskUnits="userSpaceOnUse" x="0" y="0" width="50" height="50">
    <circle cx="25" cy="25" r="25" fill="#00AAFF"/>
  </mask>
  <g mask="url(#mask0_1755_59340)">
    <path d="M50 25C50 38.8071 38.8071 50 25 50C11.1929 50 0 38.8071 0 25C0 11.1929 11.1929 0 25 0C38.8071 0 50 11.1929 50 25Z" fill="#00AAFF"/>
    <path d="M24.9956 59.5645C36.8018 59.5645 46.3726 49.7651 46.3726 37.6769C46.3726 25.5887 36.8018 15.7893 24.9956 15.7893C13.1894 15.7893 3.61865 25.5887 3.61865 37.6769C3.61865 49.7651 13.1894 59.5645 24.9956 59.5645Z" fill="#565656"/>
    <path d="M26.0346 58.3811H23.9492C14.1316 58.3811 6.17285 50.2323 6.17285 40.1801V19.5321C6.17285 17.4049 7.85989 15.6855 9.92964 15.6855H40.0542C42.1318 15.6855 43.811 17.4129 43.811 19.5321V40.1801C43.8188 50.2323 35.8601 58.3811 26.0346 58.3811Z" fill="#565656"/>
    <path d="M6.17285 13.0948V21.0837C6.17285 22.0273 7.16477 22.6111 7.96143 22.1393L14.7174 18.1408C15.514 17.669 15.514 16.4935 14.7174 16.0217L7.96143 12.0232C7.16477 11.5674 6.17285 12.1511 6.17285 13.0948Z" fill="#565656"/>
    <path d="M43.8188 12.7429V20.7318C43.8188 21.6754 42.8269 22.2592 42.0302 21.7874L35.2743 17.7889C34.4776 17.3171 34.4776 16.1415 35.2743 15.6697L42.0302 11.6713C42.8269 11.2154 43.8188 11.7992 43.8188 12.7429Z" fill="#565656"/>
    <path d="M40.5929 24.0744C39.0543 22.4351 36.9298 21.4275 34.5789 21.4275C32.228 21.4275 30.1036 22.4431 28.5649 24.0744C27.0263 25.7138 26.0734 27.9689 26.0734 30.464C26.0734 32.959 27.0263 35.2222 28.5649 36.8535C30.1036 38.4929 32.228 39.5005 34.5789 39.5005C36.9298 39.5005 39.0543 38.4849 40.5929 36.8535C42.1315 35.2142 43.0844 32.959 43.0844 30.464C43.0844 27.9689 42.1315 25.7138 40.5929 24.0744ZM21.4263 24.0744C19.8876 22.4351 17.7632 21.4275 15.4123 21.4275C13.0614 21.4275 10.9369 22.4431 9.3983 24.0744C7.85966 25.7138 6.9068 27.9689 6.9068 30.464C6.9068 32.959 7.85966 35.2222 9.3983 36.8535C10.9369 38.4929 13.0614 39.5085 15.4123 39.5085C17.7632 39.5085 19.8876 38.4929 21.4263 36.8615C22.9649 35.2222 23.9178 32.967 23.9178 30.472C23.9178 27.9689 22.9649 25.7138 21.4263 24.0744ZM15.4123 19.7561C18.1928 19.7561 20.7155 20.9556 22.5353 22.8909C23.6444 24.0664 24.4957 25.5219 24.9956 27.1453C25.4955 25.5219 26.3468 24.0744 27.4559 22.8909C29.2757 20.9556 31.7984 19.7561 34.5789 19.7561C37.3594 19.7561 39.8822 20.9556 41.702 22.8909C43.5218 24.8262 44.6543 27.5051 44.6543 30.464C44.6543 33.4228 43.5296 36.0938 41.702 38.0371C39.8822 39.9723 37.3594 41.1719 34.5789 41.1719C31.7984 41.1719 29.2757 39.9723 27.4559 38.0371C26.3468 36.8615 25.4955 35.4061 24.9956 33.7827C24.4957 35.4061 23.6444 36.8535 22.5353 38.0371C20.7155 39.9723 18.1928 41.1719 15.4123 41.1719C12.6318 41.1719 10.109 39.9723 8.28923 38.0371C6.46942 36.1018 5.33691 33.4228 5.33691 30.464C5.33691 27.5051 6.46161 24.8341 8.28923 22.8909C10.109 20.9556 12.6318 19.7561 15.4123 19.7561Z" fill="black"/>
    <path fill-rule="evenodd" clip-rule="evenodd" d="M23.9177 30.4639C23.9177 27.9689 22.9648 25.7057 21.4262 24.0743C19.8876 22.435 17.7631 21.4274 15.4122 21.4274C13.0613 21.4274 10.9369 22.443 9.39824 24.0743C7.8596 25.7137 6.90674 27.9689 6.90674 30.4639C6.90674 31.4475 7.05514 32.3991 7.3285 33.2868C7.75026 34.6463 8.46881 35.8698 9.39824 36.8614C10.8432 38.3968 12.8114 39.3885 14.9905 39.5004C15.1311 39.5084 15.2716 39.5084 15.4122 39.5084C17.7631 39.5084 19.8876 38.4928 21.4262 36.8614C22.9648 35.2221 23.9177 32.9589 23.9177 30.4639Z" fill="white"/>
    <path fill-rule="evenodd" clip-rule="evenodd" d="M43.0842 30.4639C43.0842 27.9689 42.1314 25.7057 40.5927 24.0743C39.0541 22.435 36.9297 21.4274 34.5787 21.4274C32.2278 21.4274 30.1034 22.443 28.5647 24.0743C27.0261 25.7137 26.0732 27.9689 26.0732 30.4639C26.0732 32.9589 27.0261 35.2221 28.5647 36.8534C30.1034 38.4928 32.2278 39.5004 34.5787 39.5004C34.7818 39.5004 34.9771 39.4924 35.1723 39.4764C37.2811 39.3245 39.179 38.3489 40.5927 36.8534C41.5612 35.8218 42.2954 34.5423 42.7093 33.1189C42.9514 32.2792 43.0842 31.3915 43.0842 30.4639Z" fill="white"/>
    <path d="M15.4123 35.2622C18.0004 35.2622 20.0985 33.114 20.0985 30.464C20.0985 27.8141 18.0004 25.6659 15.4123 25.6659C12.8242 25.6659 10.7261 27.8141 10.7261 30.464C10.7261 33.114 12.8242 35.2622 15.4123 35.2622Z" fill="#0F0F00"/>
    <path d="M34.5788 35.2622C37.1669 35.2622 39.265 33.114 39.265 30.464C39.265 27.8141 37.1669 25.6659 34.5788 25.6659C31.9907 25.6659 29.8926 27.8141 29.8926 30.464C29.8926 33.114 31.9907 35.2622 34.5788 35.2622Z" fill="#0F0F00"/>
    <path d="M27.7992 38.2131L24.9953 42.2195L22.1914 38.2131L24.9953 34.1986L27.7992 38.2131Z" fill="#FFD522"/>
    <path d="M27.7992 38.213L24.9953 42.2195L22.1914 38.213H27.7992Z" fill="#B28700"/>
    <path d="M24.9955 34.1985L27.7994 38.2129L24.9955 42.2194L22.1916 38.2049L24.9955 34.1985ZM24.9955 32.9189C24.5893 32.9189 24.2144 33.1189 23.9801 33.4547L21.1762 37.4692C20.8638 37.917 20.8638 38.5088 21.1762 38.9566L23.9801 42.9711C24.2144 43.307 24.5971 43.5069 24.9955 43.5069C25.4016 43.5069 25.7765 43.307 26.0108 42.9711L28.8147 38.9566C29.1272 38.5088 29.1272 37.917 28.8147 37.4692L26.0108 33.4547C25.7765 33.1189 25.4016 32.9189 24.9955 32.9189Z" fill="black"/>
    <path d="M13.7175 30.8074C14.3688 30.8074 14.8968 30.2668 14.8968 29.5999C14.8968 28.933 14.3688 28.3923 13.7175 28.3923C13.0661 28.3923 12.5381 28.933 12.5381 29.5999C12.5381 30.2668 13.0661 30.8074 13.7175 30.8074Z" fill="#00AAFF"/>
    <path d="M32.5793 30.8074C33.2306 30.8074 33.7586 30.2668 33.7586 29.5999C33.7586 28.933 33.2306 28.3923 32.5793 28.3923C31.9279 28.3923 31.3999 28.933 31.3999 29.5999C31.3999 30.2668 31.9279 30.8074 32.5793 30.8074Z" fill="#00AAFF"/>
  </g>
</svg>
